<?xml version="1.0" encoding="utf-8"?>
<!-- Generator: Adobe Illustrator 28.2.0, SVG Export Plug-In . SVG Version: 6.00 Build 0)  -->
<svg version="1.1" id="Ebene_1" xmlns="http://www.w3.org/2000/svg" xmlns:xlink="http://www.w3.org/1999/xlink" x="0px" y="0px"
	 viewBox="0 0 377 417" enable-background="new 0 0 377 417" xml:space="preserve">
<g>
	<path fill="#FFFFFF" d="M154.623,173.236c0.304,0.414,0.786,0.657,1.299,0.657h63.525c0.89,0,1.609-0.72,1.609-1.61
		c0-0.888-0.72-1.61-1.609-1.61h-61.329L208.986,9.546c0.268-0.848-0.203-1.752-1.052-2.019c-0.846-0.267-1.752,0.203-2.021,1.05
		l-51.526,163.222C154.232,172.289,154.32,172.821,154.623,173.236z"/>
	<polygon fill="#FFFFFF" points="22.468,170.673 22.468,173.893 74.724,173.893 10.571,9.949 45.635,9.949 45.635,6.728 
		5.854,6.728 70.007,170.673 	"/>
	<path fill="#FFFFFF" d="M117.198,78.118c0.829-0.324,1.237-1.258,0.915-2.085L91.089,6.672c-0.004-0.011-0.013-0.018-0.018-0.029
		c-0.063-0.152-0.15-0.293-0.257-0.42c-0.017-0.02-0.034-0.039-0.051-0.058c-0.11-0.119-0.236-0.223-0.382-0.305
		c-0.017-0.01-0.035-0.016-0.052-0.025c-0.064-0.034-0.127-0.069-0.197-0.094c-0.083-0.03-0.167-0.047-0.251-0.062
		c-0.015-0.003-0.028-0.008-0.043-0.011c-0.17-0.027-0.339-0.021-0.503,0.005c-0.014,0.002-0.028-0.003-0.043,0
		c-0.01,0.002-0.018,0.008-0.027,0.01c-0.164,0.034-0.318,0.094-0.463,0.175c-0.022,0.012-0.044,0.025-0.065,0.039
		c-0.137,0.086-0.262,0.19-0.369,0.316c-0.014,0.016-0.024,0.033-0.037,0.049c-0.1,0.127-0.186,0.268-0.246,0.426
		c-0.003,0.007-0.006,0.012-0.008,0.019c-0.001,0.002-0.002,0.003-0.003,0.005L63.752,74.724c-0.3,0.838,0.137,1.759,0.973,2.058
		c0.179,0.064,0.363,0.094,0.543,0.094c0.66,0,1.281-0.409,1.516-1.067l21.195-59.27v154.663c0,0.888,0.72,1.61,1.61,1.61
		c0.89,0,1.61-0.722,1.61-1.61V15.823l23.914,61.379C115.437,78.032,116.372,78.439,117.198,78.118z"/>
	<path fill="#FFFFFF" d="M158.335,78.929l-27.429,93.261c-0.252,0.854,0.237,1.749,1.09,1.999c0.152,0.045,0.305,0.066,0.454,0.066
		c0.697,0,1.338-0.454,1.544-1.156l27.559-93.702c0.075-0.156,0.122-0.321,0.145-0.492l20.585-69.991
		c0.252-0.852-0.237-1.749-1.09-1.999c-0.859-0.251-1.748,0.238-1.998,1.09L159.53,74.866L116.24,8.46
		c-0.487-0.747-1.486-0.956-2.228-0.47c-0.746,0.486-0.956,1.484-0.47,2.227L158.335,78.929z"/>
	<path fill="#FFFFFF" d="M285.883,171.447c0.253,0.624,0.854,1.003,1.49,1.003c0.203,0,0.408-0.038,0.606-0.12
		c0.824-0.336,1.221-1.273,0.884-2.098L224.092,11.092l0.074-0.001c0.091,0.124,0.193,0.241,0.321,0.338l60.015,45.663
		c0.291,0.222,0.634,0.329,0.974,0.329c0.485,0,0.965-0.219,1.282-0.635c0.538-0.708,0.401-1.717-0.307-2.256l-57.13-43.469
		l65.89-0.389c0.89-0.006,1.604-0.73,1.6-1.62c-0.005-0.887-0.725-1.6-1.61-1.6c-0.003,0-0.007,0-0.01,0l-73.498,0.434
		c-0.534,0.003-1.032,0.271-1.328,0.715c-0.297,0.445-0.355,1.008-0.152,1.502L285.883,171.447z"/>
	<path fill="#FFFFFF" d="M370.986,7.639c-0.27-0.557-0.832-0.911-1.45-0.911h-59.815c-0.89,0-1.609,0.722-1.609,1.61v164.045h3.22
		V84.331l14.909-18.803l38.969,108.143l3.028-1.091L328.704,62.87l-0.498,0.18l42.591-53.712
		C371.18,8.856,371.254,8.194,370.986,7.639z M311.331,79.149V9.949h54.873L311.331,79.149z"/>
	<path fill="#FFFFFF" d="M165.977,315.651l16.533-12.449c0.711-0.535,0.853-1.544,0.318-2.255c-0.533-0.708-1.541-0.852-2.255-0.317
		l-15.275,11.502l-16.333-84.748c-0.147-0.758-0.81-1.306-1.584-1.306c0,0-0.001,0-0.004,0c-0.774,0.003-1.436,0.556-1.577,1.316
		l-21.462,115.72c-0.21,0.34-0.281,0.744-0.21,1.134l-11.831,63.791c-0.162,0.875,0.415,1.716,1.289,1.878
		c0.868,0.16,1.714-0.415,1.877-1.289l11.843-63.859l35.806-26.961l17.507,90.831c0.147,0.771,0.822,1.305,1.578,1.305
		c0.101,0,0.203-0.01,0.307-0.028c0.873-0.17,1.445-1.013,1.276-1.887L165.977,315.651z M128.176,340.082l19.238-103.73
		l15.021,77.936L128.176,340.082z"/>
	<path fill="#FFFFFF" d="M84.382,229.66c-0.778-0.108-1.542,0.37-1.77,1.137L47.566,348.848l-21.19-118.85
		c-0.146-0.818-0.907-1.414-1.722-1.32c-0.83,0.07-1.469,0.763-1.473,1.594l-0.975,179.07c-0.004,0.89,0.712,1.615,1.601,1.619
		c0.003,0,0.006,0,0.01,0c0.885,0,1.605-0.715,1.61-1.6l0.879-161.416L45.59,356.108c0.13,0.734,0.75,1.282,1.495,1.323
		c0.747,0.046,1.42-0.434,1.634-1.149l33.887-114.15l0.913,166.256c0.005,0.885,0.725,1.601,1.61,1.601c0.003,0,0.006,0,0.009,0
		c0.888-0.005,1.605-0.73,1.601-1.619l-0.973-177.125C85.761,230.448,85.173,229.772,84.382,229.66z"/>
	<path fill="#FFFFFF" d="M244.331,232.422c-0.004-0.01-0.013-0.017-0.017-0.027c-0.063-0.154-0.151-0.297-0.26-0.425
		c-0.016-0.017-0.03-0.034-0.046-0.052c-0.112-0.122-0.242-0.229-0.392-0.312c-0.01-0.005-0.021-0.009-0.031-0.015
		c-0.068-0.036-0.137-0.073-0.212-0.101c-0.089-0.032-0.18-0.051-0.269-0.066c-0.006-0.002-0.012-0.004-0.018-0.005
		c-0.175-0.028-0.348-0.023-0.517,0.006c-0.012,0.002-0.023-0.002-0.036,0c-0.009,0.002-0.016,0.007-0.023,0.009
		c-0.166,0.034-0.323,0.095-0.471,0.178c-0.021,0.012-0.04,0.023-0.061,0.036c-0.138,0.086-0.264,0.19-0.371,0.316
		c-0.014,0.016-0.023,0.033-0.037,0.05c-0.098,0.124-0.181,0.262-0.24,0.417c-0.004,0.01-0.01,0.018-0.014,0.028
		c0,0.002-0.001,0.003-0.002,0.005l-26.221,73.317c-0.3,0.838,0.137,1.759,0.974,2.058c0.179,0.064,0.363,0.095,0.542,0.095
		c0.661,0,1.281-0.41,1.516-1.067l23.095-64.577v167.45c0,0.891,0.721,1.61,1.61,1.61c0.89,0,1.61-0.72,1.61-1.61V241.574
		l26.023,66.791c0.323,0.83,1.259,1.24,2.084,0.915c0.829-0.322,1.237-1.256,0.915-2.085L244.331,232.422z"/>
	<path fill="#FFFFFF" d="M351.966,233.862c-0.86,0.006-1.554,0.709-1.547,1.569l1.205,165.295l-73.886-165.94
		c-0.348-0.783-1.263-1.143-2.057-0.789c-0.784,0.352-1.137,1.271-0.788,2.057l76.921,172.76c0.253,0.568,0.816,0.923,1.422,0.923
		c0.108,0,0.22-0.012,0.33-0.035c0.72-0.157,1.234-0.797,1.228-1.534l-1.259-172.758
		C353.529,234.549,352.773,233.907,351.966,233.862z"/>
</g>
</svg>
